<mxfile host="app.diagrams.net" modified="2023-05-28T23:10:11.270Z" agent="Mozilla/5.0 (Windows NT 10.0; Win64; x64) AppleWebKit/537.36 (KHTML, like Gecko) Chrome/113.0.0.0 Safari/537.36" etag="_emI03d1H4dPUkGVprDc" version="21.3.5" type="device">
  <diagram name="Pagina-1" id="L_MHIHCZY0DWq_JTAXta">
    <mxGraphModel dx="3341" dy="889" grid="1" gridSize="10" guides="1" tooltips="1" connect="1" arrows="1" fold="1" page="1" pageScale="1" pageWidth="827" pageHeight="1169" math="0" shadow="0">
      <root>
        <mxCell id="0" />
        <mxCell id="1" parent="0" />
        <mxCell id="IIqHqA-5eo3oEXSlwP-j-37" value="" style="edgeStyle=orthogonalEdgeStyle;rounded=0;orthogonalLoop=1;jettySize=auto;html=1;" edge="1" parent="1" source="IIqHqA-5eo3oEXSlwP-j-1" target="IIqHqA-5eo3oEXSlwP-j-19">
          <mxGeometry relative="1" as="geometry">
            <Array as="points">
              <mxPoint x="213" y="150" />
              <mxPoint x="213" y="150" />
            </Array>
          </mxGeometry>
        </mxCell>
        <mxCell id="IIqHqA-5eo3oEXSlwP-j-1" value="dipartimento" style="shape=table;startSize=30;container=1;collapsible=0;childLayout=tableLayout;strokeColor=default;fontSize=18;" vertex="1" parent="1">
          <mxGeometry x="107.5" y="50" width="210" height="80" as="geometry" />
        </mxCell>
        <mxCell id="IIqHqA-5eo3oEXSlwP-j-2" value="" style="shape=tableRow;horizontal=0;startSize=0;swimlaneHead=0;swimlaneBody=0;strokeColor=inherit;top=0;left=0;bottom=0;right=0;collapsible=0;dropTarget=0;fillColor=none;points=[[0,0.5],[1,0.5]];portConstraint=eastwest;fontSize=18;" vertex="1" parent="IIqHqA-5eo3oEXSlwP-j-1">
          <mxGeometry y="30" width="210" height="50" as="geometry" />
        </mxCell>
        <mxCell id="IIqHqA-5eo3oEXSlwP-j-3" value="id" style="shape=partialRectangle;html=1;whiteSpace=wrap;connectable=1;strokeColor=inherit;overflow=hidden;fillColor=none;top=0;left=0;bottom=0;right=0;pointerEvents=1;fontSize=18;movable=1;resizable=1;rotatable=1;deletable=1;editable=1;locked=0;" vertex="1" parent="IIqHqA-5eo3oEXSlwP-j-2">
          <mxGeometry width="51" height="50" as="geometry">
            <mxRectangle width="51" height="50" as="alternateBounds" />
          </mxGeometry>
        </mxCell>
        <mxCell id="IIqHqA-5eo3oEXSlwP-j-5" value="nome_dipartimento" style="shape=partialRectangle;html=1;whiteSpace=wrap;connectable=0;strokeColor=inherit;overflow=hidden;fillColor=none;top=0;left=0;bottom=0;right=0;pointerEvents=1;fontSize=18;" vertex="1" parent="IIqHqA-5eo3oEXSlwP-j-2">
          <mxGeometry x="51" width="159" height="50" as="geometry">
            <mxRectangle width="159" height="50" as="alternateBounds" />
          </mxGeometry>
        </mxCell>
        <mxCell id="IIqHqA-5eo3oEXSlwP-j-35" style="edgeStyle=orthogonalEdgeStyle;rounded=0;orthogonalLoop=1;jettySize=auto;html=1;entryX=0.5;entryY=0;entryDx=0;entryDy=0;" edge="1" parent="1" source="IIqHqA-5eo3oEXSlwP-j-15" target="IIqHqA-5eo3oEXSlwP-j-30">
          <mxGeometry relative="1" as="geometry" />
        </mxCell>
        <mxCell id="IIqHqA-5eo3oEXSlwP-j-15" value="corso di laurea" style="shape=table;startSize=30;container=1;collapsible=0;childLayout=tableLayout;strokeColor=default;fontSize=18;" vertex="1" parent="1">
          <mxGeometry x="97.5" y="330" width="404" height="90" as="geometry" />
        </mxCell>
        <mxCell id="IIqHqA-5eo3oEXSlwP-j-16" value="" style="shape=tableRow;horizontal=0;startSize=0;swimlaneHead=0;swimlaneBody=0;strokeColor=inherit;top=0;left=0;bottom=0;right=0;collapsible=0;dropTarget=0;fillColor=none;points=[[0,0.5],[1,0.5]];portConstraint=eastwest;fontSize=18;" vertex="1" parent="IIqHqA-5eo3oEXSlwP-j-15">
          <mxGeometry y="30" width="404" height="60" as="geometry" />
        </mxCell>
        <mxCell id="IIqHqA-5eo3oEXSlwP-j-17" value="id" style="shape=partialRectangle;html=1;whiteSpace=wrap;connectable=1;strokeColor=inherit;overflow=hidden;fillColor=none;top=0;left=0;bottom=0;right=0;pointerEvents=1;fontSize=18;movable=1;resizable=1;rotatable=1;deletable=1;editable=1;locked=0;" vertex="1" parent="IIqHqA-5eo3oEXSlwP-j-16">
          <mxGeometry width="56" height="60" as="geometry">
            <mxRectangle width="56" height="60" as="alternateBounds" />
          </mxGeometry>
        </mxCell>
        <mxCell id="IIqHqA-5eo3oEXSlwP-j-18" value="nome_corso_laurea" style="shape=partialRectangle;html=1;whiteSpace=wrap;connectable=0;strokeColor=inherit;overflow=hidden;fillColor=none;top=0;left=0;bottom=0;right=0;pointerEvents=1;fontSize=18;" vertex="1" parent="IIqHqA-5eo3oEXSlwP-j-16">
          <mxGeometry x="56" width="174" height="60" as="geometry">
            <mxRectangle width="174" height="60" as="alternateBounds" />
          </mxGeometry>
        </mxCell>
        <mxCell id="IIqHqA-5eo3oEXSlwP-j-53" value="id_dipartimento" style="shape=partialRectangle;html=1;whiteSpace=wrap;connectable=0;strokeColor=inherit;overflow=hidden;fillColor=none;top=0;left=0;bottom=0;right=0;pointerEvents=1;fontSize=18;" vertex="1" parent="IIqHqA-5eo3oEXSlwP-j-16">
          <mxGeometry x="230" width="174" height="60" as="geometry">
            <mxRectangle width="174" height="60" as="alternateBounds" />
          </mxGeometry>
        </mxCell>
        <mxCell id="IIqHqA-5eo3oEXSlwP-j-38" style="edgeStyle=orthogonalEdgeStyle;rounded=0;orthogonalLoop=1;jettySize=auto;html=1;entryX=0.5;entryY=0;entryDx=0;entryDy=0;" edge="1" parent="1" source="IIqHqA-5eo3oEXSlwP-j-19" target="IIqHqA-5eo3oEXSlwP-j-15">
          <mxGeometry relative="1" as="geometry" />
        </mxCell>
        <mxCell id="IIqHqA-5eo3oEXSlwP-j-19" value="" style="rhombus;whiteSpace=wrap;html=1;fontSize=18;" vertex="1" parent="1">
          <mxGeometry x="190" y="210" width="45" height="50" as="geometry" />
        </mxCell>
        <mxCell id="IIqHqA-5eo3oEXSlwP-j-24" value="corso" style="shape=table;startSize=30;container=1;collapsible=0;childLayout=tableLayout;strokeColor=default;fontSize=18;" vertex="1" parent="1">
          <mxGeometry x="-76.5" y="600" width="752" height="80" as="geometry" />
        </mxCell>
        <mxCell id="IIqHqA-5eo3oEXSlwP-j-25" value="" style="shape=tableRow;horizontal=0;startSize=0;swimlaneHead=0;swimlaneBody=0;strokeColor=inherit;top=0;left=0;bottom=0;right=0;collapsible=0;dropTarget=0;fillColor=none;points=[[0,0.5],[1,0.5]];portConstraint=eastwest;fontSize=18;" vertex="1" parent="IIqHqA-5eo3oEXSlwP-j-24">
          <mxGeometry y="30" width="752" height="50" as="geometry" />
        </mxCell>
        <mxCell id="IIqHqA-5eo3oEXSlwP-j-26" value="id" style="shape=partialRectangle;html=1;whiteSpace=wrap;connectable=1;strokeColor=inherit;overflow=hidden;fillColor=none;top=0;left=0;bottom=0;right=0;pointerEvents=1;fontSize=18;movable=1;resizable=1;rotatable=1;deletable=1;editable=1;locked=0;" vertex="1" parent="IIqHqA-5eo3oEXSlwP-j-25">
          <mxGeometry width="56" height="50" as="geometry">
            <mxRectangle width="56" height="50" as="alternateBounds" />
          </mxGeometry>
        </mxCell>
        <mxCell id="IIqHqA-5eo3oEXSlwP-j-27" value="nome_corso" style="shape=partialRectangle;html=1;whiteSpace=wrap;connectable=0;strokeColor=inherit;overflow=hidden;fillColor=none;top=0;left=0;bottom=0;right=0;pointerEvents=1;fontSize=18;" vertex="1" parent="IIqHqA-5eo3oEXSlwP-j-25">
          <mxGeometry x="56" width="174" height="50" as="geometry">
            <mxRectangle width="174" height="50" as="alternateBounds" />
          </mxGeometry>
        </mxCell>
        <mxCell id="IIqHqA-5eo3oEXSlwP-j-54" value="id_corso_laurea" style="shape=partialRectangle;html=1;whiteSpace=wrap;connectable=0;strokeColor=inherit;overflow=hidden;fillColor=none;top=0;left=0;bottom=0;right=0;pointerEvents=1;fontSize=18;" vertex="1" parent="IIqHqA-5eo3oEXSlwP-j-25">
          <mxGeometry x="230" width="174" height="50" as="geometry">
            <mxRectangle width="174" height="50" as="alternateBounds" />
          </mxGeometry>
        </mxCell>
        <mxCell id="IIqHqA-5eo3oEXSlwP-j-55" value="id_insegnante" style="shape=partialRectangle;html=1;whiteSpace=wrap;connectable=0;strokeColor=inherit;overflow=hidden;fillColor=none;top=0;left=0;bottom=0;right=0;pointerEvents=1;fontSize=18;" vertex="1" parent="IIqHqA-5eo3oEXSlwP-j-25">
          <mxGeometry x="404" width="174" height="50" as="geometry">
            <mxRectangle width="174" height="50" as="alternateBounds" />
          </mxGeometry>
        </mxCell>
        <mxCell id="IIqHqA-5eo3oEXSlwP-j-74" value="id_studente_iscritto" style="shape=partialRectangle;html=1;whiteSpace=wrap;connectable=0;strokeColor=inherit;overflow=hidden;fillColor=none;top=0;left=0;bottom=0;right=0;pointerEvents=1;fontSize=18;" vertex="1" parent="IIqHqA-5eo3oEXSlwP-j-25">
          <mxGeometry x="578" width="174" height="50" as="geometry">
            <mxRectangle width="174" height="50" as="alternateBounds" />
          </mxGeometry>
        </mxCell>
        <mxCell id="IIqHqA-5eo3oEXSlwP-j-42" style="edgeStyle=orthogonalEdgeStyle;rounded=0;orthogonalLoop=1;jettySize=auto;html=1;entryX=0.5;entryY=0;entryDx=0;entryDy=0;" edge="1" parent="1" source="IIqHqA-5eo3oEXSlwP-j-30" target="IIqHqA-5eo3oEXSlwP-j-24">
          <mxGeometry relative="1" as="geometry" />
        </mxCell>
        <mxCell id="IIqHqA-5eo3oEXSlwP-j-30" value="" style="rhombus;whiteSpace=wrap;html=1;fontSize=18;" vertex="1" parent="1">
          <mxGeometry x="190" y="480" width="45" height="50" as="geometry" />
        </mxCell>
        <mxCell id="IIqHqA-5eo3oEXSlwP-j-43" value="1" style="shape=process;whiteSpace=wrap;html=1;backgroundOutline=1;" vertex="1" parent="1">
          <mxGeometry x="160" y="150" width="50" height="30" as="geometry" />
        </mxCell>
        <mxCell id="IIqHqA-5eo3oEXSlwP-j-44" value="*" style="shape=process;whiteSpace=wrap;html=1;backgroundOutline=1;fontSize=11;fontStyle=0" vertex="1" parent="1">
          <mxGeometry x="160" y="270" width="50" height="30" as="geometry" />
        </mxCell>
        <mxCell id="IIqHqA-5eo3oEXSlwP-j-45" value="*" style="shape=process;whiteSpace=wrap;html=1;backgroundOutline=1;fontSize=11;fontStyle=0" vertex="1" parent="1">
          <mxGeometry x="150" y="440" width="50" height="30" as="geometry" />
        </mxCell>
        <mxCell id="IIqHqA-5eo3oEXSlwP-j-46" value="*" style="shape=process;whiteSpace=wrap;html=1;backgroundOutline=1;fontSize=11;fontStyle=0" vertex="1" parent="1">
          <mxGeometry x="150" y="540" width="50" height="30" as="geometry" />
        </mxCell>
        <mxCell id="IIqHqA-5eo3oEXSlwP-j-47" value="insegnanti" style="shape=table;startSize=35;container=1;collapsible=0;childLayout=tableLayout;strokeColor=default;fontSize=18;" vertex="1" parent="1">
          <mxGeometry x="356" y="447" width="230" height="80" as="geometry" />
        </mxCell>
        <mxCell id="IIqHqA-5eo3oEXSlwP-j-48" value="" style="shape=tableRow;horizontal=0;startSize=0;swimlaneHead=0;swimlaneBody=0;strokeColor=inherit;top=0;left=0;bottom=0;right=0;collapsible=0;dropTarget=0;fillColor=none;points=[[0,0.5],[1,0.5]];portConstraint=eastwest;fontSize=18;" vertex="1" parent="IIqHqA-5eo3oEXSlwP-j-47">
          <mxGeometry y="35" width="230" height="45" as="geometry" />
        </mxCell>
        <mxCell id="IIqHqA-5eo3oEXSlwP-j-49" value="id" style="shape=partialRectangle;html=1;whiteSpace=wrap;connectable=1;strokeColor=inherit;overflow=hidden;fillColor=none;top=0;left=0;bottom=0;right=0;pointerEvents=1;fontSize=18;movable=1;resizable=1;rotatable=1;deletable=1;editable=1;locked=0;" vertex="1" parent="IIqHqA-5eo3oEXSlwP-j-48">
          <mxGeometry width="56" height="45" as="geometry">
            <mxRectangle width="56" height="45" as="alternateBounds" />
          </mxGeometry>
        </mxCell>
        <mxCell id="IIqHqA-5eo3oEXSlwP-j-50" value="nome_corso" style="shape=partialRectangle;html=1;whiteSpace=wrap;connectable=0;strokeColor=inherit;overflow=hidden;fillColor=none;top=0;left=0;bottom=0;right=0;pointerEvents=1;fontSize=18;" vertex="1" parent="IIqHqA-5eo3oEXSlwP-j-48">
          <mxGeometry x="56" width="174" height="45" as="geometry">
            <mxRectangle width="174" height="45" as="alternateBounds" />
          </mxGeometry>
        </mxCell>
        <mxCell id="IIqHqA-5eo3oEXSlwP-j-51" style="edgeStyle=orthogonalEdgeStyle;rounded=0;orthogonalLoop=1;jettySize=auto;html=1;entryX=1;entryY=0.5;entryDx=0;entryDy=0;" edge="1" parent="1" source="IIqHqA-5eo3oEXSlwP-j-49" target="IIqHqA-5eo3oEXSlwP-j-30">
          <mxGeometry relative="1" as="geometry" />
        </mxCell>
        <mxCell id="IIqHqA-5eo3oEXSlwP-j-52" value="*" style="shape=process;whiteSpace=wrap;html=1;backgroundOutline=1;fontSize=11;fontStyle=0" vertex="1" parent="1">
          <mxGeometry x="270" y="470" width="50" height="30" as="geometry" />
        </mxCell>
        <mxCell id="IIqHqA-5eo3oEXSlwP-j-56" value="appelli esame" style="shape=table;startSize=30;container=1;collapsible=0;childLayout=tableLayout;strokeColor=default;fontSize=18;" vertex="1" parent="1">
          <mxGeometry x="-844" y="290" width="752" height="80" as="geometry" />
        </mxCell>
        <mxCell id="IIqHqA-5eo3oEXSlwP-j-57" value="" style="shape=tableRow;horizontal=0;startSize=0;swimlaneHead=0;swimlaneBody=0;strokeColor=inherit;top=0;left=0;bottom=0;right=0;collapsible=0;dropTarget=0;fillColor=none;points=[[0,0.5],[1,0.5]];portConstraint=eastwest;fontSize=18;" vertex="1" parent="IIqHqA-5eo3oEXSlwP-j-56">
          <mxGeometry y="30" width="752" height="50" as="geometry" />
        </mxCell>
        <mxCell id="IIqHqA-5eo3oEXSlwP-j-58" value="id" style="shape=partialRectangle;html=1;whiteSpace=wrap;connectable=1;strokeColor=inherit;overflow=hidden;fillColor=none;top=0;left=0;bottom=0;right=0;pointerEvents=1;fontSize=18;movable=1;resizable=1;rotatable=1;deletable=1;editable=1;locked=0;" vertex="1" parent="IIqHqA-5eo3oEXSlwP-j-57">
          <mxGeometry width="56" height="50" as="geometry">
            <mxRectangle width="56" height="50" as="alternateBounds" />
          </mxGeometry>
        </mxCell>
        <mxCell id="IIqHqA-5eo3oEXSlwP-j-59" value="numero_appello" style="shape=partialRectangle;html=1;whiteSpace=wrap;connectable=0;strokeColor=inherit;overflow=hidden;fillColor=none;top=0;left=0;bottom=0;right=0;pointerEvents=1;fontSize=18;" vertex="1" parent="IIqHqA-5eo3oEXSlwP-j-57">
          <mxGeometry x="56" width="174" height="50" as="geometry">
            <mxRectangle width="174" height="50" as="alternateBounds" />
          </mxGeometry>
        </mxCell>
        <mxCell id="IIqHqA-5eo3oEXSlwP-j-60" value="data" style="shape=partialRectangle;html=1;whiteSpace=wrap;connectable=0;strokeColor=inherit;overflow=hidden;fillColor=none;top=0;left=0;bottom=0;right=0;pointerEvents=1;fontSize=18;" vertex="1" parent="IIqHqA-5eo3oEXSlwP-j-57">
          <mxGeometry x="230" width="174" height="50" as="geometry">
            <mxRectangle width="174" height="50" as="alternateBounds" />
          </mxGeometry>
        </mxCell>
        <mxCell id="IIqHqA-5eo3oEXSlwP-j-61" value="id_corso" style="shape=partialRectangle;html=1;whiteSpace=wrap;connectable=0;strokeColor=inherit;overflow=hidden;fillColor=none;top=0;left=0;bottom=0;right=0;pointerEvents=1;fontSize=18;" vertex="1" parent="IIqHqA-5eo3oEXSlwP-j-57">
          <mxGeometry x="404" width="174" height="50" as="geometry">
            <mxRectangle width="174" height="50" as="alternateBounds" />
          </mxGeometry>
        </mxCell>
        <mxCell id="IIqHqA-5eo3oEXSlwP-j-88" value="id_studente_iscritto" style="shape=partialRectangle;html=1;whiteSpace=wrap;connectable=0;strokeColor=inherit;overflow=hidden;fillColor=none;top=0;left=0;bottom=0;right=0;pointerEvents=1;fontSize=18;" vertex="1" parent="IIqHqA-5eo3oEXSlwP-j-57">
          <mxGeometry x="578" width="174" height="50" as="geometry">
            <mxRectangle width="174" height="50" as="alternateBounds" />
          </mxGeometry>
        </mxCell>
        <mxCell id="IIqHqA-5eo3oEXSlwP-j-82" style="edgeStyle=orthogonalEdgeStyle;rounded=0;orthogonalLoop=1;jettySize=auto;html=1;" edge="1" parent="1" source="IIqHqA-5eo3oEXSlwP-j-63" target="IIqHqA-5eo3oEXSlwP-j-57">
          <mxGeometry relative="1" as="geometry">
            <Array as="points">
              <mxPoint x="-72" y="525" />
              <mxPoint x="-72" y="325" />
            </Array>
          </mxGeometry>
        </mxCell>
        <mxCell id="IIqHqA-5eo3oEXSlwP-j-63" value="" style="rhombus;whiteSpace=wrap;html=1;fontSize=18;" vertex="1" parent="1">
          <mxGeometry x="-240" y="500" width="45" height="50" as="geometry" />
        </mxCell>
        <mxCell id="IIqHqA-5eo3oEXSlwP-j-64" style="edgeStyle=orthogonalEdgeStyle;rounded=0;orthogonalLoop=1;jettySize=auto;html=1;entryX=0.5;entryY=1;entryDx=0;entryDy=0;" edge="1" parent="1" source="IIqHqA-5eo3oEXSlwP-j-26" target="IIqHqA-5eo3oEXSlwP-j-63">
          <mxGeometry relative="1" as="geometry">
            <mxPoint x="-220" y="410" as="targetPoint" />
          </mxGeometry>
        </mxCell>
        <mxCell id="IIqHqA-5eo3oEXSlwP-j-66" value="1" style="shape=process;whiteSpace=wrap;html=1;backgroundOutline=1;fontSize=11;fontStyle=0" vertex="1" parent="1">
          <mxGeometry x="-280" y="555" width="50" height="30" as="geometry" />
        </mxCell>
        <mxCell id="IIqHqA-5eo3oEXSlwP-j-67" value="*" style="shape=process;whiteSpace=wrap;html=1;backgroundOutline=1;fontSize=11;fontStyle=0" vertex="1" parent="1">
          <mxGeometry x="-142" y="417" width="50" height="30" as="geometry" />
        </mxCell>
        <mxCell id="IIqHqA-5eo3oEXSlwP-j-84" style="edgeStyle=orthogonalEdgeStyle;rounded=0;orthogonalLoop=1;jettySize=auto;html=1;entryX=0.5;entryY=0;entryDx=0;entryDy=0;" edge="1" parent="1" source="IIqHqA-5eo3oEXSlwP-j-68" target="IIqHqA-5eo3oEXSlwP-j-83">
          <mxGeometry relative="1" as="geometry" />
        </mxCell>
        <mxCell id="IIqHqA-5eo3oEXSlwP-j-68" value="studente" style="shape=table;startSize=30;container=1;collapsible=0;childLayout=tableLayout;strokeColor=default;fontSize=18;" vertex="1" parent="1">
          <mxGeometry x="-880" y="30" width="926" height="80" as="geometry" />
        </mxCell>
        <mxCell id="IIqHqA-5eo3oEXSlwP-j-69" value="" style="shape=tableRow;horizontal=0;startSize=0;swimlaneHead=0;swimlaneBody=0;strokeColor=inherit;top=0;left=0;bottom=0;right=0;collapsible=0;dropTarget=0;fillColor=none;points=[[0,0.5],[1,0.5]];portConstraint=eastwest;fontSize=18;" vertex="1" parent="IIqHqA-5eo3oEXSlwP-j-68">
          <mxGeometry y="30" width="926" height="50" as="geometry" />
        </mxCell>
        <mxCell id="IIqHqA-5eo3oEXSlwP-j-70" value="id" style="shape=partialRectangle;html=1;whiteSpace=wrap;connectable=1;strokeColor=inherit;overflow=hidden;fillColor=none;top=0;left=0;bottom=0;right=0;pointerEvents=1;fontSize=18;movable=1;resizable=1;rotatable=1;deletable=1;editable=1;locked=0;" vertex="1" parent="IIqHqA-5eo3oEXSlwP-j-69">
          <mxGeometry width="56" height="50" as="geometry">
            <mxRectangle width="56" height="50" as="alternateBounds" />
          </mxGeometry>
        </mxCell>
        <mxCell id="IIqHqA-5eo3oEXSlwP-j-71" value="nome" style="shape=partialRectangle;html=1;whiteSpace=wrap;connectable=0;strokeColor=inherit;overflow=hidden;fillColor=none;top=0;left=0;bottom=0;right=0;pointerEvents=1;fontSize=18;" vertex="1" parent="IIqHqA-5eo3oEXSlwP-j-69">
          <mxGeometry x="56" width="174" height="50" as="geometry">
            <mxRectangle width="174" height="50" as="alternateBounds" />
          </mxGeometry>
        </mxCell>
        <mxCell id="IIqHqA-5eo3oEXSlwP-j-72" value="cognome" style="shape=partialRectangle;html=1;whiteSpace=wrap;connectable=0;strokeColor=inherit;overflow=hidden;fillColor=none;top=0;left=0;bottom=0;right=0;pointerEvents=1;fontSize=18;" vertex="1" parent="IIqHqA-5eo3oEXSlwP-j-69">
          <mxGeometry x="230" width="174" height="50" as="geometry">
            <mxRectangle width="174" height="50" as="alternateBounds" />
          </mxGeometry>
        </mxCell>
        <mxCell id="IIqHqA-5eo3oEXSlwP-j-73" value="matricola" style="shape=partialRectangle;html=1;whiteSpace=wrap;connectable=0;strokeColor=inherit;overflow=hidden;fillColor=none;top=0;left=0;bottom=0;right=0;pointerEvents=1;fontSize=18;" vertex="1" parent="IIqHqA-5eo3oEXSlwP-j-69">
          <mxGeometry x="404" width="174" height="50" as="geometry">
            <mxRectangle width="174" height="50" as="alternateBounds" />
          </mxGeometry>
        </mxCell>
        <mxCell id="IIqHqA-5eo3oEXSlwP-j-89" value="id_appello" style="shape=partialRectangle;html=1;whiteSpace=wrap;connectable=0;strokeColor=inherit;overflow=hidden;fillColor=none;top=0;left=0;bottom=0;right=0;pointerEvents=1;fontSize=18;" vertex="1" parent="IIqHqA-5eo3oEXSlwP-j-69">
          <mxGeometry x="578" width="174" height="50" as="geometry">
            <mxRectangle width="174" height="50" as="alternateBounds" />
          </mxGeometry>
        </mxCell>
        <mxCell id="IIqHqA-5eo3oEXSlwP-j-90" value="voto" style="shape=partialRectangle;html=1;whiteSpace=wrap;connectable=0;strokeColor=inherit;overflow=hidden;fillColor=none;top=0;left=0;bottom=0;right=0;pointerEvents=1;fontSize=18;" vertex="1" parent="IIqHqA-5eo3oEXSlwP-j-69">
          <mxGeometry x="752" width="174" height="50" as="geometry">
            <mxRectangle width="174" height="50" as="alternateBounds" />
          </mxGeometry>
        </mxCell>
        <mxCell id="IIqHqA-5eo3oEXSlwP-j-80" style="edgeStyle=orthogonalEdgeStyle;rounded=0;orthogonalLoop=1;jettySize=auto;html=1;entryX=0;entryY=0.5;entryDx=0;entryDy=0;" edge="1" parent="1" source="IIqHqA-5eo3oEXSlwP-j-75" target="IIqHqA-5eo3oEXSlwP-j-17">
          <mxGeometry relative="1" as="geometry" />
        </mxCell>
        <mxCell id="IIqHqA-5eo3oEXSlwP-j-75" value="" style="rhombus;whiteSpace=wrap;html=1;fontSize=18;" vertex="1" parent="1">
          <mxGeometry x="40" y="210" width="45" height="50" as="geometry" />
        </mxCell>
        <mxCell id="IIqHqA-5eo3oEXSlwP-j-76" style="edgeStyle=orthogonalEdgeStyle;rounded=0;orthogonalLoop=1;jettySize=auto;html=1;entryX=0;entryY=0.5;entryDx=0;entryDy=0;" edge="1" parent="1" source="IIqHqA-5eo3oEXSlwP-j-69" target="IIqHqA-5eo3oEXSlwP-j-75">
          <mxGeometry relative="1" as="geometry" />
        </mxCell>
        <mxCell id="IIqHqA-5eo3oEXSlwP-j-77" value="*" style="shape=process;whiteSpace=wrap;html=1;backgroundOutline=1;fontSize=11;fontStyle=0" vertex="1" parent="1">
          <mxGeometry x="20" y="150" width="50" height="30" as="geometry" />
        </mxCell>
        <mxCell id="IIqHqA-5eo3oEXSlwP-j-79" value="1" style="shape=process;whiteSpace=wrap;html=1;backgroundOutline=1;fontSize=11;fontStyle=0" vertex="1" parent="1">
          <mxGeometry x="30" y="310" width="50" height="30" as="geometry" />
        </mxCell>
        <mxCell id="IIqHqA-5eo3oEXSlwP-j-85" style="edgeStyle=orthogonalEdgeStyle;rounded=0;orthogonalLoop=1;jettySize=auto;html=1;entryX=0.667;entryY=-0.017;entryDx=0;entryDy=0;entryPerimeter=0;" edge="1" parent="1" source="IIqHqA-5eo3oEXSlwP-j-83" target="IIqHqA-5eo3oEXSlwP-j-56">
          <mxGeometry relative="1" as="geometry" />
        </mxCell>
        <mxCell id="IIqHqA-5eo3oEXSlwP-j-83" value="" style="rhombus;whiteSpace=wrap;html=1;fontSize=18;" vertex="1" parent="1">
          <mxGeometry x="-300" y="180" width="45" height="50" as="geometry" />
        </mxCell>
        <mxCell id="IIqHqA-5eo3oEXSlwP-j-86" value="*" style="shape=process;whiteSpace=wrap;html=1;backgroundOutline=1;fontSize=11;fontStyle=0" vertex="1" parent="1">
          <mxGeometry x="-270" y="140" width="50" height="30" as="geometry" />
        </mxCell>
        <mxCell id="IIqHqA-5eo3oEXSlwP-j-87" value="*" style="shape=process;whiteSpace=wrap;html=1;backgroundOutline=1;fontSize=11;fontStyle=0" vertex="1" parent="1">
          <mxGeometry x="-270" y="230" width="50" height="30" as="geometry" />
        </mxCell>
      </root>
    </mxGraphModel>
  </diagram>
</mxfile>
